<svg width="115" height="16" viewBox="0 0 115 16" fill="none" xmlns="http://www.w3.org/2000/svg">
<path d="M0 0V15.6863H10.2185V12.8852H3.36134V0H0Z" fill="#F90043"/>
<path d="M13.3535 0V15.6863H16.7148V0H13.3535Z" fill="#F90043"/>
<path d="M23.369 0H19.7612L25.4755 15.6863H28.9041L34.6856 0H31.2346C30.6744 1.56863 30.159 3.09244 29.666 4.54902C29.4419 5.17647 29.2402 5.82633 29.0161 6.47619C28.792 7.14846 28.5679 7.77591 28.3662 8.40336C28.1646 9.03081 27.9853 9.63585 27.806 10.1961C27.6267 10.7563 27.4699 11.2493 27.3354 11.6527H27.2906C27.1562 11.2493 26.9993 10.7563 26.82 10.1961C26.6408 9.63585 26.4391 9.03081 26.2374 8.40336C26.0133 7.77591 25.8116 7.14846 25.5875 6.47619C25.3634 5.82633 25.1394 5.17647 24.9377 4.54902C24.4447 3.09244 23.9069 1.56863 23.369 0Z" fill="#F90043"/>
<path d="M37.7407 15.6863H48.5418V12.9076H41.0572V9.0084H47.9144V6.22969H41.0572V2.77871H48.4298V0H37.7407V15.6863Z" fill="#F90043"/>
<path d="M52.1665 0V15.6863H58.0152C59.2029 15.6863 60.2785 15.5294 61.2197 15.1709C62.1609 14.8123 62.9676 14.3193 63.6399 13.6471C64.3121 12.9748 64.8051 12.1681 65.1637 11.1821C65.5222 10.2185 65.7015 9.09804 65.7015 7.84314C65.7015 6.58824 65.5222 5.4902 65.1637 4.5042C64.8051 3.54062 64.3121 2.73389 63.6399 2.06163C62.9676 1.38936 62.1609 0.896359 61.2197 0.537815C60.2785 0.179272 59.2029 0 58.0152 0H52.1665ZM62.2281 7.84314C62.2281 8.60504 62.1385 9.29972 61.9592 9.92717C61.7799 10.5546 61.5334 11.07 61.1749 11.5182C60.8163 11.9664 60.3906 12.3249 59.8528 12.549C59.3149 12.7955 58.6651 12.9076 57.9256 12.9076H55.5502V2.77871H57.9256C58.6651 2.77871 59.3149 2.91317 59.8528 3.13726C60.3906 3.38375 60.8163 3.71989 61.1749 4.16807C61.5334 4.61625 61.7799 5.15406 61.9592 5.78151C62.1385 6.40896 62.2281 7.08123 62.2281 7.84314Z" fill="#F90043"/>
<path d="M75.5782 16C76.6539 16 77.595 15.8655 78.4018 15.5966C79.1861 15.3277 79.8359 14.9244 80.3513 14.3866C80.8443 13.8711 81.2253 13.2437 81.4718 12.4818C81.7183 11.7199 81.8527 10.8683 81.8527 9.90476V0H78.4914V9.92717C78.4914 10.8908 78.2449 11.6751 77.7743 12.3025C77.2813 12.93 76.5642 13.2213 75.5782 13.2213C74.5922 13.2213 73.8528 12.93 73.3822 12.3025C72.8892 11.6751 72.6651 10.8908 72.6651 9.92717V0H69.3037V9.90476C69.3037 10.8683 69.4158 11.7199 69.6623 12.4818C69.9088 13.2437 70.2897 13.8711 70.8051 14.3866C71.2981 14.9244 71.948 15.3277 72.7547 15.5966C73.539 15.8655 74.4802 16 75.5782 16Z" fill="#F90043"/>
<path d="M86.1169 0V15.6863H89.299V5.37815H89.3662C89.5679 5.7367 89.8144 6.14006 90.1057 6.61064C90.397 7.08123 90.7108 7.59664 91.0469 8.13445C91.383 8.67227 91.7416 9.2549 92.1001 9.83754C92.4587 10.4202 92.8172 11.0028 93.1758 11.5406C93.9825 12.8627 94.834 14.2521 95.7304 15.6863H99.2262V0H96.0441V10.3081H95.9769C95.7752 9.9944 95.5287 9.61345 95.2598 9.14286C94.9685 8.69468 94.6547 8.17927 94.3186 7.64146C93.9825 7.10364 93.6239 6.54342 93.2654 5.96079C92.9068 5.37815 92.5483 4.79552 92.2122 4.21289C91.383 2.89076 90.5091 1.47899 89.6127 0H86.1169Z" fill="#F90043"/>
<path d="M103.563 15.6863H114.364V12.9076H106.879V9.0084H113.736V6.22969H106.879V2.77871H114.252V0H103.563V15.6863Z" fill="#F90043"/>
</svg>
